<?xml version="1.0" encoding="utf-8"?>
<!-- Generator: Adobe Illustrator 19.0.0, SVG Export Plug-In . SVG Version: 6.00 Build 0)  -->
<svg version="1.1" id="Layer_1" xmlns="http://www.w3.org/2000/svg" xmlns:xlink="http://www.w3.org/1999/xlink" x="0px" y="0px"
	 viewBox="0 0 2560 2560" style="enable-background:new 0 0 2560 2560;" xml:space="preserve">
<style type="text/css">
	.st0{enable-background:new    ;}
	.st1{fill:#5F6264;}
	.st2{clip-path:url(#XMLID_20_);enable-background:new    ;}
	.st3{fill:#7D8183;}
	.st4{fill:#797D7F;}
	.st5{fill:#75797B;}
	.st6{fill:#717577;}
	.st7{fill:#6E7173;}
	.st8{fill:#6A6D6F;}
	.st9{fill:#66696B;}
	.st10{fill:#626567;}
	.st11{clip-path:url(#XMLID_21_);enable-background:new    ;}
	.st12{fill:#868A8D;}
	.st13{clip-path:url(#XMLID_31_);enable-background:new    ;}
	.st14{fill:#A5AAAE;}
	.st15{fill:#616466;}
	.st16{fill:#74261E;}
	.st17{clip-path:url(#XMLID_32_);enable-background:new    ;}
	.st18{fill:#983228;}
	.st19{fill:#943126;}
	.st20{fill:#8F2F25;}
	.st21{fill:#8B2E24;}
	.st22{fill:#862C23;}
	.st23{fill:#812B22;}
	.st24{fill:#7D2920;}
	.st25{fill:#78281F;}
	.st26{fill:#A3362A;}
	.st27{clip-path:url(#XMLID_36_);enable-background:new    ;}
	.st28{fill:#76271F;}
	.st29{fill:#CA4234;}
</style>
<g id="XMLID_1_">
	<g id="XMLID_19_">
		<g id="XMLID_4_" class="st0">
			<g id="XMLID_76_">
				<polygon id="XMLID_77_" class="st1" points="1561.3,1871.5 1453.5,1812.8 1145.1,1213 1252.9,1271.6 				"/>
			</g>
			<g id="XMLID_65_" class="st0">
				<defs>
					<path id="XMLID_75_" class="st0" d="M1139.5,1151.4l-107.8-58.7c141-19.8,261.1-45.7,332.9-142.1
						c42.2-58.3,67.3-139.1,67.5-261.8c0.2-125.2-26.9-200.7-70.8-246.8l107.8,58.7c43.9,46.2,71,121.7,70.8,246.8
						c-0.2,122.7-25.4,203.5-67.5,261.8C1400.6,1105.7,1280.5,1131.6,1139.5,1151.4z"/>
				</defs>
				<clipPath id="XMLID_20_">
					<use xlink:href="#XMLID_75_"  style="overflow:visible;"/>
				</clipPath>
				<g id="XMLID_66_" class="st2">
					<path id="XMLID_74_" class="st3" d="M1139.5,1151.4l-107.8-58.7c84.3-11.8,161.1-25.8,224.6-55.8l107.8,58.7
						C1300.6,1125.5,1223.7,1139.6,1139.5,1151.4"/>
					<path id="XMLID_73_" class="st4" d="M1364.1,1095.6l-107.8-58.7c16.2-7.6,31.6-16.3,45.9-26.3l107.8,58.7
						C1395.6,1079.3,1380.3,1088,1364.1,1095.6"/>
					<path id="XMLID_72_" class="st5" d="M1410,1069.3l-107.8-58.7c9.6-6.6,18.8-13.8,27.5-21.7l107.8,58.7
						C1428.8,1055.5,1419.6,1062.7,1410,1069.3"/>
					<path id="XMLID_71_" class="st6" d="M1437.5,1047.7L1329.6,989c7.4-6.6,14.4-13.7,21.1-21.2l107.8,58.7
						C1451.8,1034,1444.8,1041,1437.5,1047.7"/>
					<path id="XMLID_70_" class="st7" d="M1458.5,1026.4l-107.8-58.7c4.8-5.4,9.4-11.1,13.9-17.1c0.8-1.1,1.6-2.3,2.5-3.4
						l107.8,58.7c-0.8,1.2-1.6,2.3-2.5,3.4C1467.9,1015.3,1463.3,1021,1458.5,1026.4"/>
					<path id="XMLID_69_" class="st8" d="M1474.8,1005.9L1367,947.2c6.5-9.3,12.6-19.1,18.2-29.5l107.8,58.7
						C1487.4,986.8,1481.3,996.6,1474.8,1005.9"/>
					<path id="XMLID_68_" class="st9" d="M1493,976.3l-107.8-58.7c7-12.9,13.2-26.9,18.8-41.9l107.8,58.7
						C1506.3,949.5,1500,963.4,1493,976.3"/>
					<path id="XMLID_67_" class="st10" d="M1511.8,934.4L1404,875.8c18-48.9,28-109.6,28.1-186.9c0.2-125.2-26.9-200.7-70.8-246.8
						l107.8,58.7c43.9,46.2,71,121.7,70.8,246.8C1539.8,824.9,1529.7,885.5,1511.8,934.4"/>
				</g>
			</g>
			<g id="XMLID_61_" class="st0">
				<defs>
					<path id="XMLID_64_" class="st0" d="M1320.5,411.6l107.8,58.7c14.9,8.1,28.6,18.2,40.9,30.5l-107.8-58.7
						C1349,429.7,1335.4,419.7,1320.5,411.6z"/>
				</defs>
				<clipPath id="XMLID_21_">
					<use xlink:href="#XMLID_64_"  style="overflow:visible;"/>
				</clipPath>
				<g id="XMLID_62_" class="st11">
					<path id="XMLID_63_" class="st10" d="M1469.2,500.7l-107.8-58.7c-12.3-12.3-26-22.4-40.9-30.5l107.8,58.7
						C1443.2,478.3,1456.9,488.4,1469.2,500.7"/>
				</g>
			</g>
			<g id="XMLID_59_">
				<polygon id="XMLID_60_" class="st12" points="762.5,1202.3 654.6,1143.7 1031.7,1092.7 1139.5,1151.4 				"/>
			</g>
			<g id="XMLID_52_" class="st0">
				<defs>
					<path id="XMLID_58_" class="st0" d="M1427.1,285.7l107.8,58.7c-86.5-47.1-213.6-52.2-389.7-27.5l-107.8-58.7
						C1213.5,233.5,1340.6,238.6,1427.1,285.7z"/>
				</defs>
				<clipPath id="XMLID_31_">
					<use xlink:href="#XMLID_58_"  style="overflow:visible;"/>
				</clipPath>
				<g id="XMLID_53_" class="st13">
					<path id="XMLID_57_" class="st3" d="M1145.2,316.9l-107.8-58.7c133.3-18.7,238.6-20.3,319.4,0.4l107.8,58.7
						C1383.8,296.5,1278.6,298.1,1145.2,316.9"/>
					<path id="XMLID_56_" class="st4" d="M1464.6,317.3l-107.8-58.7c21.7,5.6,41.7,12.8,59.9,21.7l107.8,58.7
						C1506.3,330.1,1486.4,322.9,1464.6,317.3"/>
					<path id="XMLID_54_" class="st5" d="M1524.6,339l-107.8-58.7c3.5,1.7,7,3.5,10.4,5.3l107.8,58.7
						C1531.6,342.5,1528.1,340.7,1524.6,339"/>
				</g>
			</g>
			<g id="XMLID_38_">
				<path id="XMLID_39_" class="st14" d="M1396.2,1231l329.2,617.4l-164.1,23.1l-308.4-599.8c-36,7.5-73.9,12.8-113.7,18.4l-377,53
					l-1.2,640.9l-145.1,20.4l3-1613.5l526.3-74c391.4-55,540.9,37.7,540.2,410.3C1684.9,1008.9,1600.5,1152.4,1396.2,1231z
					 M1139.5,1151.4c141-19.8,261.1-45.7,332.9-142.1c42.2-58.3,67.3-139.1,67.5-261.8c0.2-125.2-26.9-200.7-70.8-246.8
					c-71.5-71.7-189.3-66.6-328.4-47.1l-377,53l-1.3,695.7L1139.5,1151.4"/>
			</g>
			<g id="XMLID_30_">
				<polygon id="XMLID_35_" class="st12" points="618.9,390.8 511,332.2 1037.4,258.2 1145.2,316.9 				"/>
			</g>
			<g id="XMLID_5_">
				<polygon id="XMLID_29_" class="st15" points="615.9,2004.3 508,1945.7 511,332.2 618.9,390.8 				"/>
			</g>
		</g>
	</g>
	<g id="XMLID_3_">
		<g id="XMLID_6_" class="st0">
			<g id="XMLID_49_">
				<polygon id="XMLID_50_" class="st16" points="1887.5,2183.6 1779.7,2124.9 1471.6,1525.4 1579.5,1584.1 				"/>
			</g>
			<g id="XMLID_26_" class="st0">
				<defs>
					<path id="XMLID_48_" class="st0" d="M1646.6,724.1l107.8,58.7c14.9,8.1,28.6,18.2,40.9,30.5c44.2,45.7,71.4,121.6,71.1,246.4
						c-0.2,122.7-25.4,203.5-67.9,261.8c-71.4,96.3-191.5,122.2-332.5,142l-107.8-58.7c141-19.8,261.1-45.7,332.5-142
						c42.5-58.3,67.7-139.1,67.9-261.8c0.2-124.7-26.9-200.7-71.1-246.4C1675.2,742.3,1661.5,732.2,1646.6,724.1z"/>
				</defs>
				<clipPath id="XMLID_32_">
					<use xlink:href="#XMLID_48_"  style="overflow:visible;"/>
				</clipPath>
				<g id="XMLID_27_" class="st17">
					<path id="XMLID_47_" class="st18" d="M1466,1463.5l-107.8-58.7c84.2-11.8,161-25.8,224.4-55.7l107.8,58.7
						C1627,1437.6,1550.2,1451.6,1466,1463.5"/>
					<path id="XMLID_46_" class="st19" d="M1690.4,1407.8l-107.8-58.7c16.2-7.6,31.5-16.3,45.8-26.2l107.8,58.7
						C1721.9,1391.5,1706.6,1400.1,1690.4,1407.8"/>
					<path id="XMLID_45_" class="st20" d="M1736.2,1381.6l-107.8-58.7c9.6-6.6,18.7-13.8,27.3-21.6l107.8,58.7
						C1754.9,1367.8,1745.8,1375,1736.2,1381.6"/>
					<path id="XMLID_44_" class="st21" d="M1763.5,1360l-107.8-58.7c7.3-6.6,14.3-13.6,20.9-21.1l107.8,58.7
						C1777.8,1346.4,1770.8,1353.4,1763.5,1360"/>
					<path id="XMLID_37_" class="st22" d="M1784.4,1338.9l-107.8-58.7c4.9-5.5,9.6-11.3,14.1-17.4c1-1.4,2.1-2.9,3.1-4.3l107.8,58.7
						c-1,1.4-2,2.9-3.1,4.3C1794,1327.5,1789.3,1333.4,1784.4,1338.9"/>
					<path id="XMLID_34_" class="st23" d="M1801.6,1317.2l-107.8-58.7c6.5-9.2,12.5-19,18.1-29.4l107.8,58.7
						C1814.2,1298.1,1808.1,1307.9,1801.6,1317.2"/>
					<path id="XMLID_33_" class="st24" d="M1819.8,1287.7l-107.8-58.7c6.9-12.9,13.2-26.8,18.7-41.7l107.8,58.7
						C1832.9,1261,1826.7,1274.8,1819.8,1287.7"/>
					<path id="XMLID_28_" class="st25" d="M1838.4,1246l-107.8-58.7c17.9-48.8,27.9-109.3,28-186.4c0.2-124.7-26.9-200.7-71.1-246.4
						c-12.3-12.3-26-22.4-40.9-30.5l107.8,58.7c14.9,8.1,28.6,18.2,40.9,30.5c44.2,45.7,71.4,121.6,71.1,246.4
						C1866.3,1136.7,1856.4,1197.2,1838.4,1246"/>
				</g>
			</g>
			<g id="XMLID_24_">
				<polygon id="XMLID_25_" class="st26" points="1089,1514.4 981.2,1455.8 1358.2,1404.8 1466,1463.5 				"/>
			</g>
			<g id="XMLID_15_" class="st0">
				<defs>
					<path id="XMLID_23_" class="st0" d="M1753.7,597.7l107.8,58.7c-86.5-47.1-213.6-52.2-389.7-27.5l-107.8-58.7
						C1540,545.5,1667.2,550.7,1753.7,597.7z"/>
				</defs>
				<clipPath id="XMLID_36_">
					<use xlink:href="#XMLID_23_"  style="overflow:visible;"/>
				</clipPath>
				<g id="XMLID_16_" class="st27">
					<path id="XMLID_22_" class="st18" d="M1471.8,628.9l-107.8-58.7c133.3-18.7,238.6-20.3,319.4,0.4l107.8,58.7
						C1710.4,608.6,1605.1,610.2,1471.8,628.9"/>
					<path id="XMLID_18_" class="st19" d="M1791.2,629.3l-107.8-58.7c21.7,5.6,41.7,12.8,59.9,21.7l107.8,58.7
						C1832.9,642.1,1812.9,634.9,1791.2,629.3"/>
					<path id="XMLID_17_" class="st20" d="M1851.1,651l-107.8-58.7c3.5,1.7,7,3.5,10.4,5.3l107.8,58.7
						C1858.1,654.5,1854.6,652.8,1851.1,651"/>
				</g>
			</g>
			<g id="XMLID_13_">
				<polygon id="XMLID_14_" class="st26" points="945.4,702.9 837.6,644.2 1363.9,570.3 1471.8,628.9 				"/>
			</g>
			<g id="XMLID_11_">
				<polygon id="XMLID_12_" class="st28" points="942.4,2316.4 834.6,2257.8 837.6,644.2 945.4,702.9 				"/>
			</g>
			<g id="XMLID_7_">
				<path id="XMLID_8_" class="st29" d="M1722.4,1543.6l329.6,616.9l-164.5,23.1l-308-599.5c-36,7.1-73.9,12.4-113.7,18l-377,53
					l-1.2,640.9l-145.1,20.4l3-1613.5l526.3-74c391.4-55,540.9,37.7,540.2,410.3C2011.5,1321,1926.7,1465,1722.4,1543.6z
					 M1466,1463.5c141-19.8,261.1-45.7,332.5-142c42.5-58.3,67.7-139.1,67.9-261.8c0.2-124.7-26.9-200.7-71.1-246.4
					c-71.5-71.7-189.3-66.6-328-47.1l-377,53l-1.3,695.3L1466,1463.5"/>
			</g>
		</g>
	</g>
</g>
</svg>
